#!OML:ASF I:\Actors\actors\Patient Classification 2\Patient 1\Session 1\actor1.ASF
:FULLY-SPECIFIED
:DEGREES
839
root 0.467993 18.8182 5.86748 6.28952 22.9187 -3.38092
lowerback 32.4402 1.16705 1.41435
upperback 0.594826 3.77359 8.97152
thorax -17.1121 1.98732 7.58301
lowerneck -17.7316 -16.9376 -11.9256
upperneck -4.70583 -22.5286 34.6426
head 7.66642 -9.6571 9.81421
rclavicle -3.89618e-014 5.725e-014
rhumerus -61.6567 -5.4298 -80.0246
rradius 73.5198
rwrist 24.3542
rhand -3.80434 -57.9546
rfingers 7.12502
rthumb 21.9418 -86.7303
lclavicle -3.89618e-014 5.725e-014
lhumerus -47.7415 -29.3809 124.587
lradius 53.819
lwrist -8.97332
lhand -5.10408 -10.4025
lfingers 7.12502
lthumb 20.6934 18.5143
rfemur 0 0 0
rtibia 0
rfoot 0 0
rtoes 0
lfemur -19.9709 -18.8069 -12.8181
ltibia 29.5111
lfoot -17.078 5.82218
ltoes -54.0408
840
root 0.474856 18.819 5.87176 6.26311 22.7507 -3.38361
lowerback 32.3662 1.09025 1.65163
upperback 0.526197 3.7975 9.13625
thorax -17.1696 1.99062 7.63205
lowerneck -17.8647 -16.8679 -11.8869
upperneck -5.01595 -22.3086 34.4949
head 7.50795 -9.57527 9.80324
rclavicle 1.82882e-014 -6.52014e-014
rhumerus -61.9878 -5.09019 -79.9401
rradius 73.8975
rwrist 24.4258
rhand -3.51489 -58.4183
rfingers 7.12502
rthumb 22.2197 -87.1611
lclavicle 1.82882e-014 -6.52014e-014
lhumerus -47.9293 -29.5939 124.841
lradius 53.6923
lwrist -8.76532
lhand -5.22483 -10.5807
lfingers 7.12502
lthumb 20.5774 18.3487
rfemur 0 0 0
rtibia 0
rfoot 0 0
rtoes 0
lfemur -19.8755 -18.7335 -12.8588
ltibia 29.5004
lfoot -17.1283 5.9056
ltoes -54.0475
841
root 0.47957 18.8193 5.87373 6.24011 22.5973 -3.44386
lowerback 32.3277 1.00385 1.97942
upperback 0.46349 3.8452 9.30405
thorax -17.2319 1.99599 7.62287
lowerneck -18.1496 -16.807 -11.7813
upperneck -5.24984 -22.1026 34.1516
head 7.35537 -9.48596 9.70298
rclavicle 1.27222e-014 4.92986e-014
rhumerus -62.3548 -4.68827 -79.9205
rradius 74.3058
rwrist 24.3387
rhand -3.51942 -58.6104
rfingers 7.12502
rthumb 22.2154 -87.3538
lclavicle 1.27222e-014 4.92986e-014
lhumerus -48.0796 -29.8751 125.092
lradius 53.6039
lwrist -8.47334
lhand -5.30141 -10.6634
lfingers 7.12502
lthumb 20.5038 18.2739
rfemur 0 0 0
rtibia 0
rfoot 0 0
rtoes 0
lfemur -19.8273 -18.6336 -12.8247
ltibia 29.4813
lfoot -17.1039 5.98528
ltoes -54.128
842
root 0.485773 18.8184 5.87779 6.2242 22.4437 -3.41734
lowerback 32.2749 0.928548 2.28108
upperback 0.458949 3.88257 9.43529
thorax -17.2115 1.99473 7.58807
lowerneck -18.6851 -16.7805 -11.6048
upperneck -5.3486 -21.9751 33.7216
head 7.27902 -9.40121 9.53124
rclavicle 3.18055e-014 -4.6118e-014
rhumerus -62.5265 -4.63778 -79.8
rradius 74.7676
rwrist 24.3576
rhand -3.53445 -58.7839
rfingers 7.12502
rthumb 22.201 -87.529
lclavicle 3.18055e-014 -4.6118e-014
lhumerus -48.0825 -30.2648 125.285
lradius 53.4297
lwrist -8.22202
lhand -5.45084 -10.8956
lfingers 7.12502
lthumb 20.3602 18.0571
rfemur 0 0 0
rtibia 0
rfoot 0 0
rtoes 0
lfemur -19.7284 -18.5114 -12.9034
ltibia 29.4519
lfoot -17.1016 5.98484
ltoes -54.1517
843
root 0.493142 18.8178 5.88356 6.22158 22.2743 -3.33746
lowerback 32.1827 0.845818 2.53616
upperback 0.452598 3.88484 9.54477
thorax -17.1711 1.98121 7.57042
lowerneck -19.0966 -16.7475 -11.3947
upperneck -5.47277 -21.8519 33.3192
head 7.1774 -9.33321 9.37072
rclavicle -1.03368e-014 1.11319e-014
rhumerus -62.6331 -4.74796 -79.6095
rradius 75.213
rwrist 24.5293
rhand -3.43764 -58.9635
rfingers 7.12502
rthumb 22.2939 -87.6975
lclavicle -1.03368e-014 1.11319e-014
lhumerus -48.0797 -30.5793 125.435
lradius 53.2227
lwrist -8.13157
lhand -5.66648 -11.2189
lfingers 7.12502
lthumb 20.1529 17.7558
rfemur 0 0 0
rtibia 0
rfoot 0 0
rtoes 0
lfemur -19.5907 -18.3999 -13.0462
ltibia 29.3952
lfoot -17.1398 6.05008
ltoes -54.1967
844
root 0.499528 18.817 5.88954 6.22182 22.1111 -3.23179
lowerback 32.0768 0.749522 2.73739
upperback 0.421113 3.849 9.64682
thorax -17.1538 1.95635 7.59299
lowerneck -19.278 -16.6858 -11.1851
upperneck -5.66781 -21.6871 32.9357
head 7.01246 -9.27427 9.23973
rclavicle 1.82882e-014 -1.27222e-014
rhumerus -62.8423 -4.77887 -79.4643
rradius 75.669
rwrist 24.7734
rhand -3.26513 -59.1292
rfingers 7.12502
rthumb 22.4595 -87.8432
lclavicle 1.82882e-014 -1.27222e-014
lhumerus -48.1413 -30.779 125.551
lradius 53.0406
lwrist -8.09424
lhand -5.88447 -11.5924
lfingers 7.12502
lthumb 19.9434 17.4043
rfemur 0 0 0
rtibia 0
rfoot 0 0
rtoes 0
lfemur -19.4253 -18.33 -13.2078
ltibia 29.2966
lfoot -17.1507 6.14622
ltoes -54.184
845
root 0.505856 18.8156 5.89351 6.21734 21.8643 -2.96283
lowerback 32.0221 0.69757 2.76108
upperback 0.42239 3.7969 9.70954
thorax -17.1272 1.93607 7.67546
lowerneck -19.4984 -16.5753 -10.9879
upperneck -5.8396 -21.4578 32.5526
head 6.85164 -9.17961 9.12685
rclavicle -2.38542e-015 -5.08889e-014
rhumerus -63.0219 -4.7527 -79.3635
rradius 76.1022
rwrist 25.035
rhand -3.06544 -59.305
rfingers 7.12502
rthumb 22.6512 -87.9958
lclavicle -2.38542e-015 -5.08889e-014
lhumerus -48.2326 -30.9361 125.608
lradius 52.9619
lwrist -8.05253
lhand -6.13154 -12.0125
lfingers 7.12502
lthumb 19.7059 17.0087
rfemur 0 0 0
rtibia 0
rfoot 0 0
rtoes 0
lfemur -19.161 -18.3231 -13.5647
ltibia 29.177
lfoot -17.1748 6.27723
ltoes -54.0914
846
root 0.512778 18.8146 5.89208 6.22734 21.5531 -2.57963
lowerback 32.0184 0.669739 2.72665
upperback 0.43833 3.74771 9.727
thorax -17.1048 1.91823 7.73639
lowerneck -19.7422 -16.4333 -10.8513
upperneck -5.99813 -21.1811 32.2057
head 6.70521 -9.0573 9.04693
rclavicle 4.29375e-014 5.08889e-014
rhumerus -63.1021 -4.6907 -79.2939
rradius 76.4512
rwrist 25.2576
rhand -3.01325 -59.3949
rfingers 7.12502
rthumb 22.7012 -88.0796
lclavicle 4.29375e-014 5.08889e-014
lhumerus -48.2804 -31.1445 125.658
lradius 52.813
lwrist -7.99578
lhand -6.46519 -12.4306
lfingers 7.12502
lthumb 19.3851 16.6231
rfemur 0 0 0
rtibia 0
rfoot 0 0
rtoes 0
lfemur -18.8737 -18.2964 -14.0628
ltibia 29.059
lfoot -17.1793 6.44788
ltoes -54.0926
847
root 0.519644 18.8143 5.89045 6.26816 21.3466 -2.36219
lowerback 31.8965 0.586641 2.91709
upperback 0.444168 3.71358 9.80611
thorax -17.0321 1.89234 7.73539
lowerneck -19.9842 -16.3454 -10.7678
upperneck -6.1252 -20.9711 31.7671
head 6.57223 -8.96708 8.92821
rclavicle 6.04305e-014 2.8625e-014
rhumerus -63.1533 -4.64083 -79.1679
rradius 76.8383
rwrist 25.4643
rhand -2.96563 -59.4979
rfingers 7.12502
rthumb 22.7469 -88.1769
lclavicle 6.04305e-014 2.8625e-014
lhumerus -48.1581 -31.4746 125.795
lradius 52.3959
lwrist -7.86478
lhand -6.87221 -12.8426
lfingers 7.12502
lthumb 18.9937 16.25
rfemur 0 0 0
rtibia 0
rfoot 0 0
rtoes 0
lfemur -18.7342 -18.1565 -14.3552
ltibia 28.9641
lfoot -17.1272 6.47816
ltoes -54.1515
848
root 0.526958 18.815 5.89282 6.31465 21.1564 -2.28954
lowerback 31.4947 0.517059 2.83332
upperback 0.61161 3.61242 10.1815
thorax -16.6883 1.87741 8.25006
lowerneck -20.3951 -16.1525 -10.5947
upperneck -6.15141 -20.6149 30.9818
head 6.39864 -8.80291 8.7096
rclavicle 6.36111e-015 -2.22639e-014
rhumerus -62.9739 -4.18043 -78.8899
rradius 77.2424
rwrist 25.7783
rhand -2.80374 -59.6305
rfingers 7.12502
rthumb 22.9023 -88.2904
lclavicle 6.36111e-015 -2.22639e-014
lhumerus -47.5064 -31.5168 125.844
lradius 51.9152
lwrist -7.80074
lhand -7.2233 -13.1787
lfingers 7.12502
lthumb 18.656 15.9467
rfemur 0 0 0
rtibia 0
rfoot 0 0
rtoes 0
lfemur -18.6775 -17.9769 -14.475
ltibia 28.9105
lfoot -17.1242 6.44579
ltoes -54.0524
849
root 0.531794 18.815 5.89689 6.32006 21.055 -2.34693
lowerback 31.4153 0.324913 3.45096
upperback 0.472924 3.59553 10.1885
thorax -16.7677 1.82183 7.92548
lowerneck -20.4596 -16.0704 -10.3537
upperneck -6.26525 -20.4576 30.4545
head 6.22362 -8.75739 8.53485
rclavicle 1.03368e-014 2.22639e-014
rhumerus -63.2967 -4.33388 -78.9157
rradius 77.7099
rwrist 26.1673
rhand -2.57368 -59.7197
rfingers 7.12502
rthumb 23.1231 -88.3521
lclavicle 1.03368e-014 2.22639e-014
lhumerus -47.7354 -31.9608 125.98
lradius 51.6084
lwrist -7.76921
lhand -7.60796 -13.5188
lfingers 7.12502
lthumb 18.286 15.6417
rfemur 0 0 0
rtibia 0
rfoot 0 0
rtoes 0
lfemur -18.6593 -17.8258 -14.4355
ltibia 28.885
lfoot -17.1349 6.38018
ltoes -53.9433
850
root 0.530907 18.8129 5.90081 6.31756 21.1283 -2.46492
lowerback 31.3461 0.0762491 4.14919
upperback 0.32049 3.54204 10.2166
thorax -16.8605 1.74461 7.59859
lowerneck -20.4429 -15.9459 -10.0958
upperneck -6.51153 -20.2239 29.987
head 5.99223 -8.69145 8.40035
rclavicle -5.725e-014 -5.40694e-014
rhumerus -63.5716 -4.44644 -78.9871
rradius 78.2003
rwrist 26.387
rhand -2.2064 -59.8641
rfingers 7.12502
rthumb 23.4754 -88.4519
lclavicle -5.725e-014 -5.40694e-014
lhumerus -47.9395 -32.3612 126.074
lradius 51.2923
lwrist -7.71883
lhand -6.98488 -13.3809
lfingers 7.12502
lthumb 18.8854 15.7223
rfemur 0 0 0
rtibia 0
rfoot 0 0
rtoes 0
lfemur -18.699 -17.6938 -14.2876
ltibia 28.8572
lfoot -17.1077 6.1547
ltoes -53.8756
851
root 0.528178 18.8109 5.90314 6.3711 21.1281 -2.34095
lowerback 31.1905 -0.0583172 4.46585
upperback 0.297812 3.48856 10.3217
thorax -16.7972 1.7027 7.56626
lowerneck -20.6379 -15.8772 -9.95182
upperneck -6.67826 -20.0485 29.4376
head 5.82965 -8.63105 8.23464
rclavicle -1.27222e-014 -4.77083e-014
rhumerus -63.6148 -4.47478 -78.9144
rradius 78.6368
rwrist 26.5756
rhand -1.95747 -60.1118
rfingers 7.12502
rthumb 23.7142 -88.6688
lclavicle -1.27222e-014 -4.77083e-014
lhumerus -47.8054 -32.6691 126.148
lradius 50.9436
lwrist -7.68086
lhand -4.17029 -12.0065
lfingers 7.12502
lthumb 21.5904 16.8099
rfemur 0 0 0
rtibia 0
rfoot 0 0
rtoes 0
lfemur -18.6995 -17.5722 -14.4044
ltibia 28.8488
lfoot -17.1426 5.99657
ltoes -53.8089
852
root 0.526584 18.8096 5.90462 6.43757 21.0242 -2.12905
lowerback 31.0737 -0.132908 4.76793
upperback 0.281433 3.50132 10.3832
thorax -16.7472 1.68729 7.46276
lowerneck -21.0195 -15.9102 -9.87564
upperneck -6.66375 -20.029 28.8023
head 5.7733 -8.61697 8.00872
rclavicle 1.03368e-014 -1.59028e-014
rhumerus -63.6917 -4.64172 -78.7899
rradius 79.0628
rwrist 26.8492
rhand -1.88955 -60.4474
rfingers 7.12502
rthumb 23.7793 -88.996
lclavicle 1.03368e-014 -1.59028e-014
lhumerus -47.7208 -33.0857 126.312
lradius 50.5917
lwrist -7.67151
lhand -4.16403 -12.244
lfingers 7.12502
lthumb 21.5964 16.5717
rfemur 0 0 0
rtibia 0
rfoot 0 0
rtoes 0
lfemur -18.6838 -17.4549 -14.6348
ltibia 28.8884
lfoot -17.2358 5.95721
ltoes -53.7895
853
root 0.532992 18.8068 5.90022 6.37041 20.9756 -2.23675
lowerback 31.0223 -0.342351 5.42793
upperback 0.241901 3.48999 10.5107
thorax -16.7319 1.6353 7.24937
lowerneck -21.374 -15.819 -9.68891
upperneck -6.61108 -19.8607 28.0284
head 5.66574 -8.54095 7.75832
rclavicle 5.40694e-014 -3.81667e-014
rhumerus -63.8126 -4.71346 -78.682
rradius 79.4951
rwrist 27.2142
rhand -1.88483 -60.5935
rfingers 7.12502
rthumb 23.7839 -89.1415
lclavicle 5.40694e-014 -3.81667e-014
lhumerus -47.6301 -33.2837 126.4
lradius 50.2729
lwrist -7.75209
lhand -4.27582 -12.4837
lfingers 7.12502
lthumb 21.4891 16.3444
rfemur 0 0 0
rtibia 0
rfoot 0 0
rtoes 0
lfemur -18.671 -17.2833 -14.5613
ltibia 28.9488
lfoot -17.2538 5.81804
ltoes -53.8162
